<svg width="189" height="81" viewBox="0 0 189 81" fill="none" xmlns="http://www.w3.org/2000/svg">
<g filter="url(#filter0_d_508_99)">
<path d="M39.112 41.024C37.784 41.024 36.592 40.752 35.536 40.208C34.496 39.664 33.68 38.896 33.088 37.904C32.496 36.912 32.2 35.768 32.2 34.472C32.2 33.592 32.376 32.784 32.728 32.048C33.08 31.312 33.592 30.728 34.264 30.296C34.936 29.848 35.728 29.624 36.64 29.624C38.368 29.624 39.904 29.92 41.248 30.512C42.608 31.088 43.664 31.92 44.416 33.008C45.184 34.096 45.568 35.352 45.568 36.776C45.568 37.72 45.216 38.512 44.512 39.152C43.824 39.792 42.976 40.264 41.968 40.568C40.976 40.872 40.024 41.024 39.112 41.024ZM38.656 39.776C40.256 39.776 41.6 39.536 42.688 39.056C43.792 38.576 44.344 37.776 44.344 36.656C44.344 34.704 43.592 33.24 42.088 32.264C40.584 31.272 38.664 30.776 36.328 30.776C35.208 30.776 34.416 31.112 33.952 31.784C33.504 32.44 33.28 33.336 33.28 34.472C33.28 35.416 33.504 36.296 33.952 37.112C34.416 37.912 35.056 38.56 35.872 39.056C36.688 39.536 37.616 39.776 38.656 39.776ZM55.1494 41.024C54.7014 41.024 54.3894 40.792 54.2134 40.328C54.0374 39.864 53.8934 39.24 53.7814 38.456L53.7094 37.856C53.4694 36.576 53.2774 35.304 53.1334 34.04C52.9894 32.76 52.8454 31.216 52.7014 29.408L52.5574 27.632C51.5974 27.648 50.2294 27.608 48.4534 27.512L47.9734 27.488C47.7494 27.472 47.5894 27.368 47.4934 27.176C47.4134 26.968 47.3734 26.688 47.3734 26.336H49.0294C51.8134 26.336 54.3254 26.44 56.5654 26.648C58.8054 26.856 59.9254 27.28 59.9254 27.92C59.9254 28.096 59.8934 28.216 59.8294 28.28C59.7814 28.344 59.6694 28.376 59.4934 28.376C58.8534 28.328 57.8614 28.192 56.5174 27.968C56.2134 27.92 55.8454 27.864 55.4134 27.8C54.9814 27.736 54.4934 27.672 53.9494 27.608C53.9494 29.928 54.2934 33.496 54.9814 38.312C55.0134 38.552 55.1254 38.896 55.3174 39.344C55.3974 39.536 55.4694 39.744 55.5334 39.968C55.6134 40.176 55.6534 40.368 55.6534 40.544C55.6534 40.768 55.6214 40.904 55.5574 40.952C55.4934 41 55.4134 41.024 55.3174 41.024C55.2374 41.024 55.1814 41.024 55.1494 41.024ZM68.9073 41.024C68.4593 41.024 68.1473 40.792 67.9713 40.328C67.7953 39.864 67.6513 39.24 67.5393 38.456L67.4673 37.856C67.2273 36.576 67.0353 35.304 66.8913 34.04C66.7473 32.76 66.6033 31.216 66.4593 29.408L66.3153 27.632C65.3553 27.648 63.9873 27.608 62.2113 27.512L61.7313 27.488C61.5073 27.472 61.3473 27.368 61.2513 27.176C61.1713 26.968 61.1313 26.688 61.1313 26.336H62.7873C65.5713 26.336 68.0833 26.44 70.3233 26.648C72.5633 26.856 73.6833 27.28 73.6833 27.92C73.6833 28.096 73.6513 28.216 73.5873 28.28C73.5393 28.344 73.4273 28.376 73.2513 28.376C72.6113 28.328 71.6193 28.192 70.2753 27.968C69.9713 27.92 69.6033 27.864 69.1713 27.8C68.7393 27.736 68.2513 27.672 67.7073 27.608C67.7073 29.928 68.0513 33.496 68.7393 38.312C68.7713 38.552 68.8833 38.896 69.0753 39.344C69.1553 39.536 69.2273 39.744 69.2913 39.968C69.3713 40.176 69.4113 40.368 69.4113 40.544C69.4113 40.768 69.3793 40.904 69.3153 40.952C69.2513 41 69.1713 41.024 69.0753 41.024C68.9953 41.024 68.9393 41.024 68.9073 41.024Z" fill="#000C66"/>
</g>
<g filter="url(#filter1_df_508_99)">
<path d="M85.48 28.2C85.48 28.12 85.576 28.048 85.768 27.984C85.96 27.904 86.144 27.864 86.32 27.864C86.448 27.864 86.544 27.896 86.608 27.96C86.672 28.008 86.672 28.088 86.608 28.2C86.48 28.456 86.192 29 85.744 29.832C85.072 31.08 84.536 32.168 84.136 33.096C83.736 34.024 83.392 35.152 83.104 36.48C82.816 37.808 82.672 39.328 82.672 41.04L82.696 42.408C82.696 42.568 82.624 42.688 82.48 42.768C82.352 42.848 82.184 42.888 81.976 42.888C81.816 42.888 81.712 42.864 81.664 42.816C81.632 42.768 81.616 42.696 81.616 42.6C81.616 42.504 81.616 42.432 81.616 42.384C81.568 41.76 81.544 41.168 81.544 40.608C81.544 39.344 81.656 38.136 81.88 36.984C80.92 35.8 80.136 34.792 79.528 33.96C78.936 33.112 78.376 32.176 77.848 31.152C77.32 30.128 76.824 28.944 76.36 27.6C76.392 27.616 76.552 27.608 76.84 27.576C77.128 27.544 77.288 27.528 77.32 27.528L78.088 28.992C79 30.72 79.728 32.04 80.272 32.952C80.816 33.848 81.456 34.72 82.192 35.568C82.528 34.288 82.936 33.136 83.416 32.112C83.912 31.072 84.496 29.952 85.168 28.752L85.48 28.2ZM95.3916 42.024C94.9436 42.024 94.6316 41.792 94.4556 41.328C94.2796 40.864 94.1356 40.24 94.0236 39.456L93.9516 38.856C93.7116 37.576 93.5196 36.304 93.3756 35.04C93.2316 33.76 93.0876 32.216 92.9436 30.408L92.7996 28.632C91.8396 28.648 90.4716 28.608 88.6956 28.512L88.2156 28.488C87.9916 28.472 87.8316 28.368 87.7356 28.176C87.6556 27.968 87.6156 27.688 87.6156 27.336H89.2716C92.0556 27.336 94.5676 27.44 96.8076 27.648C99.0476 27.856 100.168 28.28 100.168 28.92C100.168 29.096 100.136 29.216 100.072 29.28C100.024 29.344 99.9116 29.376 99.7356 29.376C99.0956 29.328 98.1036 29.192 96.7596 28.968C96.4556 28.92 96.0876 28.864 95.6556 28.8C95.2236 28.736 94.7356 28.672 94.1916 28.608C94.1916 30.928 94.5356 34.496 95.2236 39.312C95.2556 39.552 95.3676 39.896 95.5596 40.344C95.6396 40.536 95.7116 40.744 95.7756 40.968C95.8556 41.176 95.8956 41.368 95.8956 41.544C95.8956 41.768 95.8636 41.904 95.7996 41.952C95.7356 42 95.6556 42.024 95.5596 42.024C95.4796 42.024 95.4236 42.024 95.3916 42.024ZM112.869 42C112.469 42.08 112.189 41.888 112.029 41.424C111.869 40.944 111.781 40.24 111.765 39.312C111.733 37.952 111.685 36.816 111.621 35.904C111.573 34.976 111.477 34.144 111.333 33.408C109.845 34.112 108.373 34.76 106.917 35.352C105.477 35.928 104.757 36.208 104.757 36.192L104.805 41.304C104.805 41.544 104.661 41.696 104.373 41.76C103.989 41.84 103.733 41.624 103.605 41.112C103.493 40.584 103.413 39.76 103.365 38.64C103.333 37.632 103.285 36.92 103.221 36.504C102.773 36.728 102.389 36.832 102.069 36.816C102.005 36.688 101.973 36.424 101.973 36.024C102.101 35.976 102.253 35.92 102.429 35.856C102.621 35.792 102.757 35.72 102.837 35.64C102.933 35.544 102.981 35.408 102.981 35.232C102.981 34.432 102.901 33.2 102.741 31.536C102.565 30.032 102.477 28.792 102.477 27.816L102.501 26.712C102.549 26.6 102.605 26.528 102.669 26.496C102.749 26.464 102.853 26.448 102.981 26.448C103.253 26.448 103.389 26.536 103.389 26.712L104.373 35.16C104.821 35.048 105.565 34.76 106.605 34.296C107.645 33.832 109.245 33.08 111.405 32.04L111.501 26.712C111.501 26.088 111.733 25.776 112.197 25.776C112.389 25.776 112.517 25.848 112.581 25.992C112.661 26.136 112.685 26.376 112.653 26.712L112.629 30.864C112.629 32.272 112.709 34.104 112.869 36.36C112.917 36.808 112.957 37.24 112.989 37.656C113.037 38.056 113.077 38.44 113.109 38.808C113.205 39.8 113.269 40.432 113.301 40.704C113.349 40.96 113.421 41.192 113.517 41.4C113.437 41.72 113.221 41.92 112.869 42ZM118.703 42C118.495 42.08 118.295 42.032 118.103 41.856C117.927 41.68 117.831 41.432 117.815 41.112C117.751 40.648 117.679 40.08 117.599 39.408C117.535 38.736 117.487 38.24 117.455 37.92C117.423 37.6 117.351 36.984 117.239 36.072C117.143 35.144 117.039 34.344 116.927 33.672C116.895 33.448 116.791 33.048 116.615 32.472C116.151 30.824 115.919 29.632 115.919 28.896C116.031 28.736 116.143 28.656 116.255 28.656C116.671 28.656 117.103 29.488 117.551 31.152C117.999 32.816 118.375 34.696 118.679 36.792C118.999 38.872 119.159 40.296 119.159 41.064C119.159 41.096 119.159 41.2 119.159 41.376C119.159 41.536 119.119 41.672 119.039 41.784C118.975 41.896 118.863 41.968 118.703 42ZM131.935 30.048C132.399 30.048 132.879 30.504 133.375 31.416C133.871 32.328 134.287 33.376 134.623 34.56C134.959 35.728 135.127 36.6 135.127 37.176C135.127 38.056 134.935 38.848 134.551 39.552C134.183 40.24 133.655 40.784 132.967 41.184C132.279 41.568 131.495 41.76 130.615 41.76C129.399 41.76 128.343 41.432 127.447 40.776C126.567 40.12 125.863 39.368 125.335 38.52C124.807 37.656 124.263 36.624 123.703 35.424L123.367 34.704L123.415 40.512C123.415 40.864 123.351 41.208 123.223 41.544C123.111 41.864 122.911 42.024 122.623 42.024C122.335 42.024 122.127 41.864 121.999 41.544C121.871 41.208 121.807 40.88 121.807 40.56C121.807 39.536 121.887 38.064 122.047 36.144C122.207 34.224 122.287 32.792 122.287 31.848C122.287 31.624 122.271 31.392 122.239 31.152C122.207 30.912 122.183 30.744 122.167 30.648C122.087 30.216 122.047 29.832 122.047 29.496V29.4C122.095 29.4 122.239 29.368 122.479 29.304C122.735 29.224 122.887 29.184 122.935 29.184H123.175C123.783 31.92 124.679 34.448 125.863 36.768C127.063 39.072 128.703 40.224 130.783 40.224C131.759 40.224 132.495 39.936 132.991 39.36C133.503 38.768 133.759 37.976 133.759 36.984C133.759 36.136 133.623 35.36 133.351 34.656C133.079 33.936 132.671 33.056 132.127 32.016L131.479 30.744C131.431 30.664 131.407 30.584 131.407 30.504C131.407 30.376 131.455 30.272 131.551 30.192C131.647 30.096 131.775 30.048 131.935 30.048ZM123.415 40.512V40.464V40.512ZM149.499 43.656C148.955 43.656 148.587 43.368 148.395 42.792C148.219 42.232 148.131 41.616 148.131 40.944L148.203 40.248C147.419 40.744 146.491 41.136 145.419 41.424C144.363 41.712 143.251 41.856 142.083 41.856C141.235 41.856 140.483 41.664 139.827 41.28C139.171 40.88 138.659 40.344 138.291 39.672C137.939 38.984 137.763 38.208 137.763 37.344C137.763 36.032 138.275 34.792 139.299 33.624C140.323 32.44 141.579 31.48 143.067 30.744C144.571 29.992 145.963 29.568 147.243 29.472C147.883 29.408 148.427 29.552 148.875 29.904C149.323 30.24 149.547 30.712 149.547 31.32C149.211 31.32 148.811 31.232 148.347 31.056C148.283 31.04 148.115 30.992 147.843 30.912C147.571 30.832 147.291 30.792 147.003 30.792C145.867 30.792 144.659 31.12 143.379 31.776C142.115 32.432 141.051 33.304 140.187 34.392C139.339 35.464 138.915 36.592 138.915 37.776C138.915 38.336 139.083 38.824 139.419 39.24C139.771 39.64 140.203 39.952 140.715 40.176C141.243 40.384 141.771 40.488 142.299 40.488C143.563 40.488 144.603 40.44 145.419 40.344C146.235 40.232 146.939 39.952 147.531 39.504C148.123 39.04 148.419 38.336 148.419 37.392C148.419 36.944 148.323 36.632 148.131 36.456H143.859C143.635 36.456 143.419 36.344 143.211 36.12C143.019 35.896 142.923 35.672 142.923 35.448C142.923 35.048 143.043 34.848 143.283 34.848C143.475 34.848 143.779 34.928 144.195 35.088C144.579 35.264 144.907 35.352 145.179 35.352C145.531 35.352 146.075 35.304 146.811 35.208C146.939 35.192 147.171 35.168 147.507 35.136C147.843 35.104 148.147 35.088 148.419 35.088C148.691 35.088 148.955 35.208 149.211 35.448C149.483 35.672 149.611 35.928 149.595 36.216L149.451 41.76C149.563 41.984 149.755 42.176 150.027 42.336C150.123 42.384 150.203 42.44 150.267 42.504C150.331 42.584 150.371 42.664 150.387 42.744C150.467 42.92 150.387 43.112 150.147 43.32C149.907 43.544 149.691 43.656 149.499 43.656ZM160.393 41.088C161.705 41.088 162.721 40.904 163.441 40.536C164.161 40.168 164.521 39.632 164.521 38.928C164.521 38.304 164.305 37.768 163.873 37.32C163.441 36.856 162.905 36.464 162.265 36.144C161.625 35.824 160.753 35.448 159.649 35.016C159.553 34.984 159.321 34.896 158.953 34.752C157.449 34.144 156.289 33.536 155.473 32.928C154.673 32.32 154.273 31.536 154.273 30.576C154.273 29.504 154.697 28.696 155.545 28.152C156.393 27.608 157.481 27.336 158.809 27.336C159.785 27.336 160.681 27.464 161.497 27.72C162.329 27.96 162.985 28.296 163.465 28.728C163.961 29.16 164.209 29.648 164.209 30.192C164.017 30.288 163.833 30.336 163.657 30.336C163.465 30.336 163.265 30.296 163.057 30.216C162.865 30.12 162.577 29.968 162.193 29.76C161.569 29.424 160.985 29.16 160.441 28.968C159.897 28.76 159.257 28.656 158.521 28.656C157.593 28.656 156.841 28.816 156.265 29.136C155.689 29.456 155.401 29.904 155.401 30.48C155.401 30.928 155.593 31.336 155.977 31.704C156.377 32.072 156.873 32.4 157.465 32.688C158.073 32.96 158.881 33.288 159.889 33.672C161.169 34.168 162.225 34.632 163.057 35.064C163.889 35.496 164.593 36.048 165.169 36.72C165.761 37.376 166.057 38.16 166.057 39.072C166.057 40.144 165.545 40.976 164.521 41.568C163.497 42.144 162.225 42.432 160.705 42.432C159.505 42.432 158.321 42.256 157.153 41.904C155.985 41.552 154.985 41.032 154.153 40.344C153.321 39.64 152.793 38.8 152.569 37.824C152.569 37.392 152.689 37.024 152.929 36.72C153.169 36.4 153.465 36.24 153.817 36.24C153.817 37.28 154.105 38.168 154.681 38.904C155.273 39.624 156.065 40.168 157.057 40.536C158.065 40.904 159.177 41.088 160.393 41.088Z" fill="#000C66"/>
<path d="M76 44.4H167.017V45.6H76V44.4Z" fill="#000C66"/>
</g>
<a href="https://www.figma.com/file/5GME2pSeThfgLbEa8dajrn/FrontEnd?node-id=0%3A1">
<rect fill="black" fill-opacity="0" y="-0.00800133" width="91.0174" height="35.016"/>
</a>
<g filter="url(#filter2_df_508_99)">
<path d="M10.784 41.088C12.096 41.088 13.112 40.904 13.832 40.536C14.552 40.168 14.912 39.632 14.912 38.928C14.912 38.304 14.696 37.768 14.264 37.32C13.832 36.856 13.296 36.464 12.656 36.144C12.016 35.824 11.144 35.448 10.04 35.016C9.944 34.984 9.712 34.896 9.344 34.752C7.84 34.144 6.68 33.536 5.864 32.928C5.064 32.32 4.664 31.536 4.664 30.576C4.664 29.504 5.088 28.696 5.936 28.152C6.784 27.608 7.872 27.336 9.2 27.336C10.176 27.336 11.072 27.464 11.888 27.72C12.72 27.96 13.376 28.296 13.856 28.728C14.352 29.16 14.6 29.648 14.6 30.192C14.408 30.288 14.224 30.336 14.048 30.336C13.856 30.336 13.656 30.296 13.448 30.216C13.256 30.12 12.968 29.968 12.584 29.76C11.96 29.424 11.376 29.16 10.832 28.968C10.288 28.76 9.648 28.656 8.912 28.656C7.984 28.656 7.232 28.816 6.656 29.136C6.08 29.456 5.792 29.904 5.792 30.48C5.792 30.928 5.984 31.336 6.368 31.704C6.768 32.072 7.264 32.4 7.856 32.688C8.464 32.96 9.272 33.288 10.28 33.672C11.56 34.168 12.616 34.632 13.448 35.064C14.28 35.496 14.984 36.048 15.56 36.72C16.152 37.376 16.448 38.16 16.448 39.072C16.448 40.144 15.936 40.976 14.912 41.568C13.888 42.144 12.616 42.432 11.096 42.432C9.896 42.432 8.712 42.256 7.544 41.904C6.376 41.552 5.376 41.032 4.544 40.344C3.712 39.64 3.184 38.8 2.96 37.824C2.96 37.392 3.08 37.024 3.32 36.72C3.56 36.4 3.856 36.24 4.208 36.24C4.208 37.28 4.496 38.168 5.072 38.904C5.664 39.624 6.456 40.168 7.448 40.536C8.456 40.904 9.568 41.088 10.784 41.088ZM21.7664 41.04C21.4624 39.824 21.2304 38.6 21.0704 37.368C20.9104 36.12 20.7664 34.072 20.6384 31.224C20.6384 31.032 20.7024 30.864 20.8304 30.72C20.9744 30.576 21.1344 30.504 21.3104 30.504H21.5264C21.6064 31.032 21.6624 31.88 21.6944 33.048C21.6944 33.176 21.7104 33.608 21.7424 34.344C21.7744 35.064 21.8544 35.744 21.9824 36.384C23.8384 36.208 25.3184 35.848 26.4224 35.304C27.5424 34.76 28.1024 33.984 28.1024 32.976C28.1024 31.712 27.5424 30.68 26.4224 29.88C25.3024 29.08 23.6144 28.68 21.3584 28.68C20.4144 28.68 19.6144 28.856 18.9584 29.208C18.8464 29.256 18.7664 29.36 18.7184 29.52C18.6704 29.664 18.6304 29.872 18.5984 30.144C18.5664 30.432 18.5264 30.648 18.4784 30.792C18.4304 30.936 18.3424 31.008 18.2144 31.008C18.0704 31.008 17.9744 30.904 17.9264 30.696C17.8944 30.472 17.8784 29.968 17.8784 29.184C17.8784 28.736 18.1824 28.384 18.7904 28.128C19.3984 27.872 20.1824 27.744 21.1424 27.744C23.9424 27.744 26.0224 28.184 27.3824 29.064C28.7424 29.944 29.4224 31.296 29.4224 33.12C29.4224 34.096 29.0304 34.912 28.2464 35.568C27.4624 36.224 26.5104 36.712 25.3904 37.032C24.2704 37.336 23.1984 37.488 22.1744 37.488C22.2064 37.68 22.2384 37.856 22.2704 38.016C22.3024 38.176 22.3264 38.312 22.3424 38.424C22.5664 39.512 22.6784 40.352 22.6784 40.944C22.6784 41.296 22.6304 41.576 22.5344 41.784C22.4544 41.992 22.2704 42.064 21.9824 42L21.7664 41.04Z" fill="#000C66"/>
<path d="M2 44.4H29.8544V45.6H2V44.4Z" fill="#000C66"/>
</g>
<a href="https://www.figma.com/file/5GME2pSeThfgLbEa8dajrn/FrontEnd?node-id=0%3A1">
<rect fill="black" fill-opacity="0" y="-0.00800133" width="27.8544" height="35.016"/>
</a>
<ellipse cx="54" cy="37.125" rx="21" ry="23.625" stroke="#33363F" stroke-width="2"/>
<path d="M81 67.5L72 57.375" stroke="#33363F" stroke-width="2" stroke-linecap="round"/>
<defs>
<filter id="filter0_d_508_99" x="32.2" y="26.336" width="65.4832" height="46.688" filterUnits="userSpaceOnUse" color-interpolation-filters="sRGB">
<feFlood flood-opacity="0" result="BackgroundImageFix"/>
<feColorMatrix in="SourceAlpha" type="matrix" values="0 0 0 0 0 0 0 0 0 0 0 0 0 0 0 0 0 0 127 0" result="hardAlpha"/>
<feOffset dx="19" dy="27"/>
<feGaussianBlur stdDeviation="2.5"/>
<feComposite in2="hardAlpha" operator="out"/>
<feColorMatrix type="matrix" values="0 0 0 0 0 0 0 0 0 0 0 0 0 0 0 0 0 0 0.25 0"/>
<feBlend mode="normal" in2="BackgroundImageFix" result="effect1_dropShadow_508_99"/>
<feBlend mode="normal" in="SourceGraphic" in2="effect1_dropShadow_508_99" result="shape"/>
</filter>
<filter id="filter1_df_508_99" x="74.36" y="23.776" width="113.697" height="48.88" filterUnits="userSpaceOnUse" color-interpolation-filters="sRGB">
<feFlood flood-opacity="0" result="BackgroundImageFix"/>
<feColorMatrix in="SourceAlpha" type="matrix" values="0 0 0 0 0 0 0 0 0 0 0 0 0 0 0 0 0 0 127 0" result="hardAlpha"/>
<feOffset dx="18" dy="25"/>
<feGaussianBlur stdDeviation="2"/>
<feComposite in2="hardAlpha" operator="out"/>
<feColorMatrix type="matrix" values="0 0 0 0 0 0 0 0 0 0 0 0 0 0 0 0 0 0 0.25 0"/>
<feBlend mode="normal" in2="BackgroundImageFix" result="effect1_dropShadow_508_99"/>
<feBlend mode="normal" in="SourceGraphic" in2="effect1_dropShadow_508_99" result="shape"/>
<feGaussianBlur stdDeviation="1" result="effect2_foregroundBlur_508_99"/>
</filter>
<filter id="filter2_df_508_99" x="0.959999" y="25.336" width="48.4624" height="48.096" filterUnits="userSpaceOnUse" color-interpolation-filters="sRGB">
<feFlood flood-opacity="0" result="BackgroundImageFix"/>
<feColorMatrix in="SourceAlpha" type="matrix" values="0 0 0 0 0 0 0 0 0 0 0 0 0 0 0 0 0 0 127 0" result="hardAlpha"/>
<feOffset dx="16" dy="27"/>
<feGaussianBlur stdDeviation="2"/>
<feComposite in2="hardAlpha" operator="out"/>
<feColorMatrix type="matrix" values="0 0 0 0 0 0 0 0 0 0 0 0 0 0 0 0 0 0 0.25 0"/>
<feBlend mode="normal" in2="BackgroundImageFix" result="effect1_dropShadow_508_99"/>
<feBlend mode="normal" in="SourceGraphic" in2="effect1_dropShadow_508_99" result="shape"/>
<feGaussianBlur stdDeviation="1" result="effect2_foregroundBlur_508_99"/>
</filter>
</defs>
</svg>
